<svg xmlns="http://www.w3.org/2000/svg" width="1600" height="700" viewBox="0 0 1600 700"><defs><linearGradient id="b" x2="1" y2="1"><stop stop-color="#111827"/><stop offset="1" stop-color="#7f1d1d"/></linearGradient><linearGradient id="r" x2="1" y2="1"><stop stop-color="#ff6855"/><stop offset="1" stop-color="#d91f26"/></linearGradient></defs><rect width="1600" height="700" fill="url(#b)"/><path d="M0 600L300 430 550 530 790 260 1030 390 1300 150 1600 270" fill="none" stroke="#fff" stroke-opacity=".12" stroke-width="5"/><g transform="translate(1040 80) rotate(6)"><rect width="400" height="520" rx="34" fill="#fff"/><rect x="25" y="25" width="350" height="175" rx="22" fill="url(#r)"/><circle cx="200" cy="95" r="38" fill="#fff" opacity=".75"/><path d="M135 170c15-55 37-73 65-73s50 18 65 73" fill="#fff" opacity=".75"/><rect x="38" y="230" width="105" height="105" rx="18" fill="#111827"/><text x="90" y="302" fill="#fff" text-anchor="middle" font-family="sans-serif" font-size="58" font-weight="900">1</text><rect x="170" y="240" width="170" height="18" rx="9" fill="#1f2937"/><rect x="170" y="278" width="135" height="12" rx="6" fill="#cbd5e1"/><g transform="translate(38 380)"><rect width="305" height="13" rx="7" fill="#e5e7eb"/><rect width="270" height="13" rx="7" fill="#ef4444"/><rect y="42" width="305" height="13" rx="7" fill="#e5e7eb"/><rect y="42" width="239" height="13" rx="7" fill="#f97316"/></g></g></svg>